# AST/ASF file generated using VICON BodyLanguage
# -----------------------------------------------
:version 1.10
:name VICON
:units
  mass 1.0
  length 0.45
  angle deg
:documentation
   .ast/.asf automatically generated from VICON data using
   VICON BodyBuilder and BodyLanguage model FoxedUp or BRILLIANT.MOD
:root
   order TX TY TZ RX RY RZ
   axis XYZ
   position 0 0 0  
   orientation 0 -0 0 
:bonedata
  begin
     id 1 
     name lhipjoint
     direction 0.515797 -0.759363 0.396637 
     length 2.47888 
     axis 0 -0 0  XYZ
  end
  begin
     id 2 
     name lfemur
     direction 0.34202 -0.939693 0  
     length 6.81885  
     axis 0 -0 20  XYZ
    dof rx ry rz
    limits (-160.0 20.0)
           (-70.0 70.0)
           (-60.0 70.0)
  end
  begin
     id 3 
     name ltibia
     direction 0.342037 -0.939687 0   
     length 7.89258   
     axis 0 -0 20   XYZ
    dof rx
    limits (-10.0 170.0)
  end
  begin
     id 4 
     name lfoot
     direction 0.173497 -0.476678 0.861787   
     length 2.51543   
     axis -90 -1.13533e-015 20   XYZ
    dof rx rz
    limits (-45.0 90.0)
           (-70.0 20.0)
  end
  begin
     id 5 
     name ltoes
     direction 1.53564e-011 -4.21897e-011 1   
     length 1.21388   
     axis -90 -1.13533e-015 20   XYZ
    dof rx
    limits (-90.0 20.0)
  end
  begin
     id 6 
     name rhipjoint
     direction -0.489454 -0.772941 0.403729   
     length 2.43534  
     axis 0 -0 0  XYZ 
  end
  begin
     id 7 
     name rfemur
     direction -0.34202 -0.939693 0   
     length 7.10357   
     axis 0 -0 -20   XYZ
    dof rx ry rz
    limits (-160.0 20.0)
           (-70.0 70.0)
           (-70.0 60.0)
  end
  begin
     id 8 
     name rtibia
     direction -0.34202 -0.939693 0   
     length 9.16127   
     axis 0 -0 -20   XYZ
    dof rx
    limits (-10.0 170.0)
 end
 begin
     id 9 
     name rfoot
     direction -0.270974 -0.748671 0.605033   
     length 1.74894  
     axis -90 1.13533e-015 -20   XYZ
    dof rx rz
    limits (-45.0 90.0)
           (-20.0 70.0)
  end
  begin
     id 10 
     name rtoes
     direction -1.53557e-011 -4.21759e-011 1   
     length 0.787585   
     axis -90 1.13533e-015 -20   XYZ
    dof rx
    limits (-90.0 20.0)
  end
  begin
     id 11 
     name lowerback
     direction -0.0140249 0.999561 0.0260968   
     length 2.16963   
     axis 0 -0 0   XYZ
    dof rx ry rz
    limits (-20.0 45.0)
           (-30.0 30.0)
           (-30.0 30.0)
  end
  begin
     id 12 
     name upperback
     direction 0.00860018 0.999959 -0.002711   
     length 2.1726   
     axis 0 -0 0   XYZ
    dof rx ry rz
    limits (-20.0 45.0)
           (-30.0 30.0)
           (-30.0 30.0)
  end
  begin
     id 13 
     name thorax
     direction 0.015211 0.999782 -0.0143191   
     length 2.17061   
     axis 0 -0 0   XYZ
    dof rx ry rz
    limits (-20.0 45.0)
           (-30.0 30.0)
           (-30.0 30.0)
  end
  begin
     id 14 
     name lowerneck
     direction -0.0140143 0.999447 0.030145   
     length 2.26749   
     axis 0 -0 0   XYZ
    dof rx ry rz
    limits (-20.0 45.0)
           (-30.0 30.0)
           (-30.0 30.0)
  end
  begin
     id 15 
     name upperneck
     direction 0.118062 0.961438 -0.248392   
     length 2.22728   
     axis 0 -0 0   XYZ
    dof rx ry rz
    limits (-20.0 45.0)
           (-30.0 30.0)
           (-30.0 30.0)
  end
  begin
     id 16
     name head
     direction 0.0431885 0.9954 -0.085514  
     length 2.28786  
     axis 0 -0 0   XYZ
    dof rx ry rz
    limits (-20.0 45.0)
           (-30.0 30.0)
           (-30.0 30.0)
  end
  begin
     id 17 
     name lclavicle
     direction 0.912126 0.409548 0.0172323  
     length 4.31571  
     axis 0 -0 0   XYZ
    dof ry rz
    limits (-20.0 10.0)
           (0.0 20.0)
  end
  begin
     id 18 
     name lhumerus
     direction 1 -4.48977e-011 1.93091e-027   
     length 5.13658   
     axis 180 -30 -90   XYZ
    dof rx ry rz
    limits (-60.0 90.0)
           (-90.0 90.0)
           (-90.0 90.0)
  end
  begin
     id 19
     name lradius
     direction 1 -4.48916e-011 6.84018e-027   
     length 3.22473   
     axis 180 -30 -90   XYZ
    dof rx
    limits (-10.0 170.0)
  end
  begin
     id 20
     name lwrist
     direction 1 -4.48987e-011 7.01981e-027   
     length 1.61236   
     axis -4.37994e-015 90 90   XYZ
    dof ry
    limits (-180.0 0.0)
 end
  begin
     id 21 
     name lhand
     direction 1 -4.49037e-011 1.40335e-026   
     length 0.936406   
     axis -8.96029e-015 90 90   XYZ
    dof rx rz
    limits (-90.0 90.0)
           (-45.0 45.0)
  end
  begin
     id 22 
     name lfingers
     direction 1 -4.48886e-011 2.8104e-026   
     length 0.754955   
     axis -1.79203e-014 90 90   XYZ
    dof rx
    limits (0.0 90.0)
  end
  begin
     id 23
     name lthumb
     direction 0.707107 -6.34937e-011 0.707107   
     length 1.08397   
     axis -90 45 -4.48555e-014   XYZ
    dof rx rz
    limits (-45.0 45.0)
           (-45.0 45.0)
  end
  begin
     id 24 
     name rclavicle
     direction -0.947962 0.317997 0.0156638   
     length 4.86918  
     axis 0 -0 0   XYZ 
    dof ry rz
    limits (-10.0 20.0)
           (-20.0 0.0)
  end
  begin
     id 25 
     name rhumerus
     direction -1 -4.48951e-011 2.80534e-018  
     length 5.60911   
     axis 180 30 90   XYZ
    dof rx ry rz
    limits (-90.0 60.0)
           (-90.0 90.0)
           (-90.0 90.0)
  end
  begin
     id 26 
     name rradius
     direction -1 -4.4898e-011 2.11315e-027   
     length 3.38704   
     axis 180 30 90   XYZ
    dof rx
    limits (-10.0 170.0)
  end
  begin
     id 27 
     name rwrist
     direction -1 -4.48933e-011 7.02314e-027   
     length 1.69352   
     axis -4.37994e-015 -90 -90   XYZ
    dof ry
    limits (-180.0 0.0)
  end
  begin
     id 28
     name rhand
     direction -1 -4.48937e-011 1.40458e-026   
     length 0.755878   
     axis -8.96029e-015 -90 -90   XYZ
    dof rx rz
    limits (-90.0 90.0)
           (-45.0 45.0)
  end
  begin
     id 29
     name rfingers
     direction -1 -4.4901e-011 2.80737e-026   
     length 0.609409   
     axis -1.79203e-014 -90 -90   XYZ
    dof rx
    limits (0.0 90.0)
  end
  begin
     id 30
     name rthumb
     direction -0.707107 -6.34968e-011 0.707107   
     length 0.874992   
     axis -90 -45 4.48555e-014   XYZ
    dof rx rz
    limits (-45.0 45.0)
           (-45.0 45.0)
  end
:hierarchy
  begin
    root lhipjoint rhipjoint lowerback
    lhipjoint lfemur
    lfemur ltibia
    ltibia lfoot
    lfoot ltoes
    rhipjoint rfemur
    rfemur rtibia
    rtibia rfoot
    rfoot rtoes
    lowerback upperback
    upperback thorax
    thorax lowerneck lclavicle rclavicle
    lowerneck upperneck
    upperneck head
    lclavicle lhumerus
    lhumerus lradius
    lradius lwrist
    lwrist lhand lthumb
    lhand lfingers
    rclavicle rhumerus
    rhumerus rradius
    rradius rwrist
    rwrist rhand rthumb
    rhand rfingers
  end

#!OML:ASF C:\ViconDB\ViconDB\414\Spring2016\041811\Spring2016.ASF
:FULLY-SPECIFIED
:DEGREES
136
root 10.8063 17.3203 2.49216 -177.277 -8.87935 -178.326
lowerback -3.72085 -1.35386 1.88041
upperback -0.836586 -2.02857 2.7841
thorax 1.26388 -1.05788 1.70567
lowerneck -12.1193 -2.35358 -9.9424
upperneck 24.8898 -5.00169 9.49935
head 10.3975 -2.71987 4.37396
rclavicle -2.27671e-014 -5.40694e-014
rhumerus -81.9775 28.3978 -109.733
rradius 93.4552
rwrist 34.3028
rhand -42.9978 2.70179
rfingers 7.12502
rthumb -15.8563 -26.669
lclavicle -2.27671e-014 -5.40694e-014
lhumerus -85.867 -36.0441 123.241
lradius 68.5511
lwrist -26.8484
lhand -49.2011 2.54747
lfingers 7.12502
lthumb -21.8222 31.3371
rfemur 176.728 30.4493 -155.318
rtibia 42.4176
rfoot -39.9319 -64.6245
rtoes -26.7796
lfemur 17.593 -4.06551 -16.7662
ltibia 25.8434
lfoot -1.61461 -9.55248
ltoes -23.1
137
root 10.8207 17.3744 2.31839 -177.392 -8.80716 -178.006
lowerback -3.73915 -1.35367 2.23819
upperback -0.871665 -2.05331 2.8695
thorax 1.22953 -1.07383 1.5922
lowerneck -12.3264 -2.27658 -10.0463
upperneck 25.4734 -5.01564 9.65669
head 10.6589 -2.74619 4.45888
rclavicle -1.38093e-014 4.77083e-015
rhumerus -81.8432 28.3756 -109.588
rradius 93.439
rwrist 34.4098
rhand -42.6922 2.58376
rfingers 7.12502
rthumb -15.5619 -26.8101
lclavicle -1.38093e-014 4.77083e-015
lhumerus -85.8248 -36.2343 123.291
lradius 68.5469
lwrist -27.0365
lhand -49.2952 2.60344
lfingers 7.12502
lthumb -21.9125 31.3825
rfemur 176.026 30.891 -155.03
rtibia 42.2832
rfoot -40.7649 -64.0184
rtoes -26.5279
lfemur 15.4276 -2.86295 -15.5157
ltibia 29.5957
lfoot 1.37276 -10.0772
ltoes -21.3277
138
root 10.8396 17.4229 2.14926 -177.455 -8.75111 -177.73
lowerback -3.77323 -1.327 2.42119
upperback -0.930672 -2.03442 2.94954
thorax 1.18463 -1.06824 1.57307
lowerneck -12.257 -2.27577 -9.99709
upperneck 25.6926 -5.04261 9.48876
head 10.7235 -2.78917 4.38831
rclavicle 8.51668e-015 2.8625e-014
rhumerus -81.8082 28.3345 -109.48
rradius 93.4381
rwrist 34.2106
rhand -42.3585 2.63134
rfingers 7.12502
rthumb -15.2405 -26.7873
lclavicle 8.51668e-015 2.8625e-014
lhumerus -85.8591 -36.5223 123.467
lradius 68.5101
lwrist -27.1537
lhand -49.2297 2.45768
lfingers 7.12502
lthumb -21.8496 31.2441
rfemur 175.47 31.5855 -154.658
rtibia 42.0643
rfoot -42.1259 -63.3605
rtoes -26.441
lfemur 13.1804 -1.78176 -14.3478
ltibia 33.3862
lfoot 4.35629 -10.3809
ltoes -18.6372
139
root 10.8582 17.4773 1.98413 -177.537 -8.72638 -177.546
lowerback -3.76525 -1.3345 2.54015
upperback -0.963909 -2.05164 2.97277
thorax 1.14305 -1.07861 1.53043
lowerneck -12.2391 -2.24431 -10.2001
upperneck 25.9295 -5.10286 9.7817
head 10.8263 -2.82505 4.52919
rclavicle -7.09413e-015 2.62396e-014
rhumerus -81.8096 28.3303 -109.52
rradius 93.3403
rwrist 33.9987
rhand -42.2577 2.62208
rfingers 7.12502
rthumb -15.1434 -26.8039
lclavicle -7.09413e-015 2.62396e-014
lhumerus -85.8731 -36.7387 123.544
lradius 68.5684
lwrist -27.3977
lhand -49.1715 2.40352
lfingers 7.12502
lthumb -21.7937 31.1965
rfemur 174.913 32.4399 -154.387
rtibia 41.8404
rfoot -43.7494 -62.6935
rtoes -26.602
lfemur 10.9686 -1.0291 -13.4481
ltibia 37.0827
lfoot 6.94268 -10.2323
ltoes -15.4269
140
root 10.877 17.5263 1.82617 -177.551 -8.66366 -177.197
lowerback -3.8131 -1.28945 2.80704
upperback -1.03013 -2.01021 3.0085
thorax 1.09389 -1.06146 1.41975
lowerneck -12.0828 -2.22809 -10.2597
upperneck 26.013 -5.20333 10.0407
head 10.8452 -2.86862 4.62415
rclavicle 4.56211e-014 -6.04305e-014
rhumerus -81.9283 28.3374 -109.639
rradius 93.2397
rwrist 33.6496
rhand -42.0312 2.52259
rfingers 7.12502
rthumb -14.9252 -26.9197
lclavicle 4.56211e-014 -6.04305e-014
lhumerus -85.9288 -37.0242 123.58
lradius 68.611
lwrist -27.9878
lhand -49.1538 2.53276
lfingers 7.12502
lthumb -21.7767 31.3277
rfemur 174.557 33.4803 -153.791
rtibia 41.5815
rfoot -45.695 -62.0794
rtoes -26.3808
lfemur 8.63272 -0.14893 -12.3623
ltibia 40.6732
lfoot 9.04656 -10.0923
ltoes -12.618
141
root 10.8935 17.5757 1.67794 -177.325 -8.53523 -177.455
lowerback -3.93218 -1.23145 2.48963
upperback -1.09666 -1.91181 2.86849
thorax 1.09683 -1.00885 1.45572
lowerneck -12.1003 -2.28074 -10.3557
upperneck 26.1062 -5.36285 10.2944
head 10.9122 -2.93279 4.71632
rclavicle -1.31074e-015 -9.54166e-015
rhumerus -81.9565 28.442 -109.669
rradius 93.0736
rwrist 33.3445
rhand -41.9692 2.56931
rfingers 7.12502
rthumb -14.8655 -26.8774
lclavicle -1.31074e-015 -9.54166e-015
lhumerus -85.9661 -37.3437 123.574
lradius 68.8277
lwrist -28.3451
lhand -48.9785 2.66578
lfingers 7.12502
lthumb -21.6083 31.4801
rfemur 174.458 34.5475 -153.755
rtibia 41.2833
rfoot -47.7386 -61.4485
rtoes -26.3846
lfemur 6.13529 0.632181 -12.109
ltibia 44.1176
lfoot 9.66671 -9.72272
ltoes -11.6381
142
root 10.9158 17.6252 1.53012 -177.407 -8.48779 -177.222
lowerback -3.83127 -1.22032 2.49536
upperback -1.08506 -1.89484 2.90316
thorax 1.0532 -1.00119 1.49136
lowerneck -12.0497 -2.28402 -10.4717
upperneck 26.069 -5.44785 10.6189
head 10.9103 -2.95402 4.84615
rclavicle -1.3213e-014 1.82882e-014
rhumerus -82.0631 28.6554 -109.851
rradius 92.7842
rwrist 33.2055
rhand -41.9726 2.2016
rfingers 7.12502
rthumb -14.8688 -27.2448
lclavicle -1.3213e-014 1.82882e-014
lhumerus -85.9152 -37.5603 123.525
lradius 68.9968
lwrist -28.5028
lhand -48.8562 2.01238
lfingers 7.12502
lthumb -21.4909 30.8402
rfemur 174.108 35.6321 -153.35
rtibia 40.9064
rfoot -49.7007 -60.7202
rtoes -26.4448
lfemur 3.88219 1.33909 -11.3019
ltibia 47.3649
lfoot 8.41157 -9.43939
ltoes -12.6959
143
root 10.9398 17.6738 1.38355 -177.61 -8.35295 -176.75
lowerback -3.68034 -1.11829 2.79111
upperback -1.03446 -1.76605 2.89655
thorax 1.01076 -0.937143 1.32807
lowerneck -11.8844 -2.33589 -10.4841
upperneck 25.923 -5.65372 11.0194
head 10.8603 -3.01592 4.96705
rclavicle 7.24943e-015 -3.33958e-014
rhumerus -82.2086 28.7334 -110.139
rradius 92.5406
rwrist 32.797
rhand -42.0193 2.23171
rfingers 7.12502
rthumb -14.9138 -27.2114
lclavicle 7.24943e-015 -3.33958e-014
lhumerus -86.0533 -37.8513 123.494
lradius 69.1836
lwrist -28.5398
lhand -48.7706 1.84675
lfingers 7.12502
lthumb -21.4087 30.6839
rfemur 173.683 36.6322 -152.76
rtibia 40.4733
rfoot -51.5799 -59.9811
rtoes -26.4664
lfemur 1.7224 1.99107 -10.2938
ltibia 50.3822
lfoot 6.54686 -8.84283
ltoes -12.2379
144
root 10.9653 17.7216 1.23852 -177.803 -8.21631 -176.429
lowerback -3.5018 -0.992049 2.86174
upperback -0.969856 -1.59364 2.91201
thorax 0.975187 -0.85068 1.31508
lowerneck -11.7218 -2.44956 -10.7587
upperneck 25.6968 -5.9122 11.5792
head 10.8026 -3.10659 5.18598
rclavicle 1.64122e-014 -6.12257e-014
rhumerus -82.3817 28.946 -110.235
rradius 92.2033
rwrist 33.0055
rhand -42.0905 1.84162
rfingers 7.12502
rthumb -14.9824 -27.5964
lclavicle 1.64122e-014 -6.12257e-014
lhumerus -86.1185 -38.1893 123.613
lradius 69.3164
lwrist -28.7336
lhand -48.7111 1.59076
lfingers 7.12502
lthumb -21.3515 30.4344
rfemur 173.278 37.7264 -152.34
rtibia 39.9951
rfoot -53.5976 -59.139
rtoes -26.6643
lfemur -0.393946 2.70833 -9.48432
ltibia 53.102
lfoot 4.58407 -7.91276
ltoes -11.9569
145
root 10.9853 17.7701 1.0997 -177.93 -8.05804 -176.271
lowerback -3.33814 -0.896325 2.84398
upperback -0.89726 -1.45157 2.83409
thorax 0.956022 -0.776305 1.25325
lowerneck -11.5053 -2.51964 -11.0359
upperneck 25.3399 -6.12057 12.2536
head 10.6849 -3.16263 5.45194
rclavicle 2.21645e-014 -2.74323e-014
rhumerus -82.5353 29.1305 -110.57
rradius 91.8408
rwrist 32.5179
rhand -42.3596 1.8898
rfingers 7.12502
rthumb -15.2415 -27.5287
lclavicle 2.21645e-014 -2.74323e-014
lhumerus -86.231 -38.465 123.62
lradius 69.569
lwrist -28.7297
lhand -48.7768 1.57997
lfingers 7.12502
lthumb -21.4147 30.4165
rfemur 172.984 39.1746 -152.005
rtibia 39.5292
rfoot -56.0819 -58.3463
rtoes -26.6302
lfemur -2.55037 3.31312 -9.01054
ltibia 55.519
lfoot 2.58723 -6.41092
ltoes -11.9053
146
root 11.007 17.8129 0.965333 -178.076 -7.91461 -176.111
lowerback -3.08324 -0.809411 2.76147
upperback -0.840835 -1.31512 2.77757
thorax 0.871365 -0.705667 1.25071
lowerneck -11.4146 -2.58619 -11.162
upperneck 25.1299 -6.30122 12.7009
head 10.6336 -3.2144 5.61298
rclavicle 8.26199e-016 -5.28767e-014
rhumerus -82.778 29.341 -110.946
rradius 91.5135
rwrist 32.1874
rhand -42.4584 1.65562
rfingers 7.12502
rthumb -15.3367 -27.7556
lclavicle 8.26199e-016 -5.28767e-014
lhumerus -86.2152 -38.6501 123.637
lradius 69.6239
lwrist -28.8717
lhand -48.8718 1.58099
lfingers 7.12502
lthumb -21.5059 30.4071
rfemur 172.676 40.7778 -151.656
rtibia 39.11
rfoot -58.7491 -57.5368
rtoes -26.5585
lfemur -4.66708 3.80051 -8.58987
ltibia 57.6211
lfoot 0.659581 -4.5235
ltoes -12.292
147
root 11.0287 17.8497 0.834558 -178.161 -7.71078 -176.175
lowerback -2.86361 -0.66665 2.49119
upperback -0.773623 -1.09173 2.60939
thorax 0.818213 -0.587868 1.24007
lowerneck -11.2699 -2.68232 -11.311
upperneck 24.8448 -6.55366 13.2756
head 10.5615 -3.29204 5.81451
rclavicle -1.03896e-014 -2.70347e-014
rhumerus -82.9049 29.465 -111.205
rradius 90.9233
rwrist 32.9845
rhand -42.9781 0.790828
rfingers 7.12502
rthumb -15.8373 -28.5814
lclavicle -1.03896e-014 -2.70347e-014
lhumerus -86.4121 -38.9953 123.713
lradius 69.9032
lwrist -28.9493
lhand -48.8836 1.82554
lfingers 7.12502
lthumb -21.5172 30.6504
rfemur 172.396 42.4157 -151.536
rtibia 38.7475
rfoot -61.4616 -57.0073
rtoes -26.192
lfemur -6.75801 4.3052 -8.48752
ltibia 59.4109
lfoot -1.24088 -2.87463
ltoes -12.3277
